# xmcd
#
# Track frame offsets:
#	150
#	22450
#	39602
#	52992
#	71991
#	85356
#	92318
#	103413
#	117367
#	137164
#	154750
#	171582
#	201957
#	214511
#	229883
#	249649
#
# Disc length: 3600 seconds
#
# Revision: 1
# Processed by: cddbd v1.5.2PL0 Copyright (c) Steve Scherf et al.
# Submitted via: audiograbber 1.83.01
#
DISCID=f10e0e10
DTITLE=Son House - Raw Delta Blues Cd2
DYEAR=1900
DGENRE=Blues
TTITLE0=Low Down Dirty Dog Blues
TTITLE1=Four O'Clock blues
TTITLE2=Walking Blues
TTITLE3=The Pony Blues
TTITLE4=Clarksdale Moan
TTITLE5=John the Revelator
TTITLE6=Camp Hollers
TTITLE7=I Shall Not Be Moved
TTITLE8=Louise McGhee
TTITLE9=Motherless Children
TTITLE10=Pearline
TTITLE11=Son's Blues
TTITLE12=This Little Light Of Mine
TTITLE13=Yonder Comes My Mother
TTITLE14=Empire State Express
TTITLE15=The Pony Blues (Alternate Version)
EXTD=Second disc
EXTT0=
EXTT1=
EXTT2=
EXTT3=
EXTT4=
EXTT5=
EXTT6=
EXTT7=
EXTT8=
EXTT9=
EXTT10=
EXTT11=
EXTT12=
EXTT13=
EXTT14=
EXTT15=
PLAYORDER=
